<svg version="1.1" id="Layer_1" xmlns="http://www.w3.org/2000/svg" xmlns:xlink="http://www.w3.org/1999/xlink" x="0px" y="0px"
	 width="100%" viewBox="0 0 2000 2000" enable-background="new 0 0 2000 2000" xml:space="preserve">
<path fill="#000000" opacity="1.000000" stroke="none" 
	d="
M1164.000000,2001.000000 
	C776.000000,2001.000000 388.500000,2001.000000 1.000000,2001.000000 
	C1.000000,1334.333374 1.000000,667.666687 1.000000,1.000000 
	C667.666687,1.000000 1334.333374,1.000000 2001.000000,1.000000 
	C2001.000000,667.666687 2001.000000,1334.333374 2001.000000,2001.000000 
	C1722.166626,2001.000000 1443.333374,2001.000000 1164.000000,2001.000000 
M1028.622192,604.947449 
	C1035.711304,604.977600 1042.801758,605.101013 1049.889282,605.007324 
	C1055.235840,604.936768 1060.578979,604.588318 1066.802734,603.987122 
	C1088.038940,603.656494 1109.275024,603.329346 1130.511230,602.994141 
	C1150.416016,602.679932 1170.322388,602.425842 1190.224976,602.005676 
	C1198.624878,601.828430 1207.013794,601.157532 1215.413696,600.950623 
	C1231.991089,600.542114 1248.572510,600.300659 1265.046265,599.852722 
	C1265.046265,599.852722 1264.907349,599.956604 1265.022095,600.894714 
	C1265.027344,724.049866 1265.032471,847.205078 1265.037842,970.360229 
	C1265.038208,976.885620 1265.039429,976.885620 1271.886719,977.517395 
	C1272.101562,979.300232 1272.316528,981.083130 1273.110962,983.601929 
	C1274.920410,983.728699 1276.729614,983.964478 1278.539185,983.965820 
	C1309.028198,983.988586 1339.517212,983.982300 1370.006226,983.982300 
	C1408.325684,983.982300 1446.645264,984.000000 1484.964600,983.921265 
	C1486.591431,983.917908 1488.216309,983.020264 1490.008789,981.712891 
	C1490.222168,980.076599 1490.435547,978.440247 1491.392578,976.849731 
	C1498.011841,976.756104 1498.013550,976.756104 1498.013550,970.400452 
	C1498.014038,848.857666 1498.011475,727.314880 1498.033447,605.772095 
	C1498.033813,603.807678 1498.329956,601.843201 1498.511597,599.952148 
	C1498.511597,599.952148 1498.539795,599.880371 1499.561523,599.910645 
	C1508.937378,600.290710 1518.312744,600.981018 1527.689209,600.995300 
	C1561.972900,601.047485 1596.256836,600.874390 1631.175781,601.017578 
	C1631.400024,601.039795 1631.624146,601.061951 1632.314209,601.837708 
	C1644.181519,601.848633 1656.048706,601.859497 1668.854004,602.016052 
	C1678.918701,602.357483 1688.981079,602.842102 1699.048706,603.001282 
	C1709.698242,603.169739 1720.353516,603.081848 1731.004150,602.943542 
	C1732.124146,602.929016 1733.229980,601.820374 1734.211914,601.245300 
	C1734.211914,601.245300 1734.243042,601.374695 1734.994263,601.366272 
	C1734.948730,600.411377 1734.903198,599.456543 1734.958008,598.524170 
	C1734.958008,598.524170 1734.869873,598.471252 1735.582397,598.052246 
	C1736.779297,597.700439 1737.976074,597.348572 1739.870972,597.025574 
	C1740.329102,596.960815 1740.787354,596.895996 1742.085327,596.922668 
	C1742.390381,595.270325 1742.961304,593.618225 1742.962524,591.965698 
	C1743.007202,525.285522 1743.000732,458.605347 1742.999023,391.925171 
	C1742.999023,390.595184 1743.071289,389.253174 1742.900757,387.943970 
	C1742.859985,387.630402 1741.979492,387.426208 1740.586304,387.001862 
	C1735.940063,387.735687 1734.475098,385.599640 1734.908081,381.174347 
	C1735.080322,379.414124 1734.277954,377.558533 1733.388306,375.121979 
	C1732.223511,375.086578 1731.058594,375.020142 1729.893799,375.020111 
	C1496.913208,375.015381 1263.932495,375.014954 1030.951904,375.026154 
	C1029.673340,375.026215 1028.394897,375.191376 1027.251953,375.270081 
	C1027.018677,377.767151 1026.819092,379.904724 1026.450439,381.988037 
	C1026.450439,381.988037 1026.392212,382.155823 1025.456177,382.173492 
	C1025.326660,383.814819 1025.084229,385.456085 1025.083862,387.097443 
	C1025.065186,454.249603 1025.068237,521.401733 1025.068726,588.553894 
	C1025.068726,589.718628 1024.881714,590.931396 1025.159180,592.026184 
	C1025.283325,592.516052 1026.341553,592.769226 1026.986816,592.993286 
	C1026.986816,592.993286 1026.850342,592.983032 1026.978394,593.887451 
	C1027.346558,597.361389 1027.714722,600.835388 1028.622192,604.947449 
M1027.694824,1032.040039 
	C1027.371826,1032.143066 1027.202759,1032.364136 1026.996704,1033.584961 
	C1026.996704,1035.324951 1026.996704,1037.064941 1026.996704,1038.354614 
	C1024.579712,1038.945312 1022.793457,1039.381714 1020.232178,1040.270996 
	C1020.156067,1040.761108 1020.013367,1041.251221 1020.013245,1041.741333 
	C1020.000732,1104.113892 1019.992493,1166.486572 1020.042175,1228.859131 
	C1020.043091,1230.043091 1020.734924,1231.226440 1021.623047,1232.990601 
	C1023.255249,1232.990601 1024.887451,1232.990601 1026.474854,1232.990601 
	C1027.234619,1240.051147 1027.234619,1240.051758 1034.218628,1240.051758 
	C1077.381592,1240.051880 1120.544678,1240.066406 1163.707642,1240.046997 
	C1197.369629,1240.031982 1231.031494,1239.974487 1264.937256,1240.863037 
	C1264.950562,1320.193359 1264.963989,1399.523682 1264.051025,1478.986206 
	C1048.454224,1478.986206 832.857483,1478.986206 617.002075,1478.986206 
	C617.002075,1476.476196 617.002075,1474.500122 617.002075,1472.524048 
	C617.002136,1184.694214 617.001953,896.864380 617.006836,609.034546 
	C617.006836,607.370300 617.076538,605.706055 617.463074,604.061707 
	C617.463074,604.061707 617.803833,603.981934 618.257568,604.759644 
	C618.913635,604.841370 619.569702,604.994690 620.225769,604.994751 
	C724.918457,605.005615 829.611145,605.009583 934.303833,604.960632 
	C935.648865,604.960022 936.993713,604.278442 938.965942,603.456848 
	C938.991760,601.344055 939.017578,599.231262 939.956543,596.992676 
	C943.555359,596.992676 947.154114,596.992676 950.683838,596.992676 
	C950.683838,525.014587 950.683838,453.594421 950.683838,381.911652 
	C946.559814,381.911652 942.748901,381.911652 938.937744,382.042877 
	C938.937744,382.042877 939.068970,382.044342 939.009094,381.131409 
	C939.009094,379.195282 939.009094,377.259155 939.009094,375.001404 
	C937.214844,375.001404 935.910217,375.001404 934.605591,375.001404 
	C724.243713,375.001617 513.881897,374.999756 303.520050,375.044556 
	C302.065521,375.044861 300.611084,375.688019 299.014648,376.874756 
	C298.961731,378.584534 298.908844,380.294281 297.979675,382.057587 
	C296.055298,382.057587 294.130890,382.057587 292.283508,382.057587 
	C292.283508,810.031799 292.283508,1237.472168 292.283508,1665.104492 
	C294.716797,1665.104492 296.876190,1665.104492 299.026245,1664.973999 
	C299.026245,1664.973999 298.895660,1664.982666 298.960327,1665.897461 
	C298.960327,1667.837280 298.960327,1669.777222 298.960327,1672.007935 
	C301.196472,1672.007935 303.001678,1672.008057 304.806885,1672.008057 
	C697.788940,1672.008179 1090.770996,1672.008057 1483.753052,1672.007080 
	C1485.419556,1672.007080 1487.092529,1672.069580 1488.747681,1671.929199 
	C1489.144897,1671.895508 1489.483032,1671.165649 1490.010620,1669.936523 
	C1490.092651,1668.354736 1490.174561,1666.772827 1490.244263,1665.426025 
	C1492.775879,1665.072021 1494.839722,1664.783447 1497.613770,1663.892090 
	C1497.743408,1662.082764 1497.986572,1660.273560 1497.986694,1658.464233 
	C1498.003784,1453.816162 1498.002686,1249.168213 1498.002075,1044.520142 
	C1498.002075,1043.187012 1498.123657,1041.833252 1497.920410,1040.530884 
	C1497.839478,1040.010986 1497.030518,1039.604614 1495.776001,1038.978149 
	C1494.355225,1038.978149 1492.934448,1038.978149 1491.299438,1038.978149 
	C1490.780151,1036.613770 1490.316650,1034.503540 1489.852051,1031.447388 
	C1488.380371,1031.307129 1486.908813,1031.044189 1485.437134,1031.044067 
	C1334.439697,1031.025513 1183.442139,1031.023926 1032.444702,1031.065552 
	C1030.934204,1031.066040 1029.423828,1031.656128 1027.939331,1032.153931 
	C1027.939331,1032.153931 1028.122803,1032.130615 1027.694824,1032.040039 
z"/>
<path fill="#3C91E6" opacity="1.000000" stroke="none" 
	d="
M1021.007202,1039.818237 
	C1022.793457,1039.381714 1024.579712,1038.945312 1026.996704,1038.354614 
	C1026.996704,1037.064941 1026.996704,1035.324951 1027.087402,1032.852173 
	C1027.493042,1032.123169 1027.807861,1032.126831 1028.122803,1032.130615 
	C1028.122803,1032.130615 1027.939331,1032.153931 1028.390869,1032.166260 
	C1180.018066,1032.179810 1331.193970,1032.180054 1482.369751,1032.191040 
	C1484.864258,1032.191162 1487.358643,1032.322876 1489.853149,1032.393188 
	C1490.316650,1034.503540 1490.780151,1036.613770 1491.299438,1038.978149 
	C1492.934448,1038.978149 1494.355225,1038.978149 1496.217651,1039.518066 
	C1496.688110,1042.056885 1496.742065,1044.055664 1496.742065,1046.054443 
	C1496.745850,1249.538452 1496.745117,1453.022339 1496.752319,1656.506348 
	C1496.752319,1659.169189 1496.850952,1661.832153 1496.903564,1664.494995 
	C1494.839722,1664.783447 1492.775879,1665.072021 1490.244263,1665.426025 
	C1490.174561,1666.772827 1490.092651,1668.354736 1489.474121,1670.407471 
	C1487.272827,1670.922241 1485.608154,1671.004761 1483.943359,1671.004761 
	C1091.512939,1671.010254 699.082458,1671.010132 306.652008,1671.010132 
	C304.703674,1671.010132 302.755371,1671.010010 301.143555,1671.010010 
	C300.217560,1668.527100 299.556610,1666.754883 298.895660,1664.982666 
	C298.895660,1664.982666 299.026245,1664.973999 298.775940,1664.737061 
	C293.124146,1664.508789 292.969696,1661.053711 292.970337,1656.841431 
	C293.034241,1234.575562 293.037781,812.309692 292.930695,390.043854 
	C292.929504,385.377136 293.644043,382.314484 298.855957,382.004059 
	C298.908844,380.294281 298.961731,378.584534 299.544250,376.446533 
	C301.740265,376.000092 303.406647,375.966034 305.073059,375.966003 
	C513.391418,375.963745 721.709839,375.978363 930.028137,375.875183 
	C934.881897,375.872772 938.483154,376.407684 939.068970,382.044342 
	C939.068970,382.044342 938.937744,382.042877 939.295166,382.178436 
	C940.450439,382.515900 941.258301,382.925873 942.044495,382.887909 
	C951.182190,382.446838 950.013611,383.780609 950.016296,391.272400 
	C950.039307,456.843964 950.030090,522.415527 950.028870,587.987061 
	C950.028687,595.495361 950.021729,595.466492 942.335205,596.157043 
	C941.218140,596.257385 940.139648,596.787354 939.043335,597.118469 
	C939.017578,599.231262 938.991760,601.344055 938.158875,603.632202 
	C936.686523,603.784363 936.021301,603.740967 935.356018,603.740967 
	C830.830811,603.735474 726.305603,603.732117 621.780396,603.741028 
	C620.454895,603.741150 619.129333,603.898193 617.803833,603.981934 
	C617.803833,603.981934 617.463074,604.061707 616.926147,604.280029 
	C616.252930,606.812805 615.997498,609.127258 615.997375,611.441650 
	C615.979553,898.377991 615.977661,1185.314331 615.993347,1472.250610 
	C615.993835,1481.023926 614.976868,1480.088135 623.611084,1480.088745 
	C835.397400,1480.104248 1047.183716,1480.101196 1258.970093,1480.094849 
	C1260.967285,1480.094849 1262.964600,1480.005371 1265.293701,1479.690796 
	C1265.817139,1477.956299 1266.175537,1476.488525 1266.176147,1475.020874 
	C1266.203247,1398.280762 1266.209351,1321.540527 1266.137329,1244.800415 
	C1266.135742,1243.178589 1265.195679,1241.557373 1264.693481,1239.935913 
	C1231.031494,1239.974487 1197.369629,1240.031982 1163.707642,1240.046997 
	C1120.544678,1240.066406 1077.381592,1240.051880 1034.218628,1240.051758 
	C1027.234619,1240.051758 1027.234619,1240.051147 1026.474854,1232.990601 
	C1024.887451,1232.990601 1023.255249,1232.990601 1021.387085,1232.197998 
	C1021.147827,1196.646362 1021.160767,1161.887085 1021.136353,1127.127930 
	C1021.115967,1098.024658 1021.051941,1068.921509 1021.007202,1039.818237 
M936.651978,588.641113 
	C937.080444,587.104736 937.882019,585.568726 937.883545,584.031860 
	C937.946655,521.084595 937.953491,458.137238 937.855286,395.190063 
	C937.852600,393.457550 936.621399,391.726929 935.656616,389.291016 
	C933.277161,388.893768 930.897888,388.150238 928.518250,388.148987 
	C819.363403,388.091675 710.208557,388.099213 601.053711,388.099213 
	C505.564056,388.099213 410.074371,388.096619 314.584717,388.116150 
	C312.448059,388.116577 310.311432,388.368652 308.174805,388.503357 
	C308.213531,388.990753 308.252258,389.478149 308.290955,389.965546 
	C517.528748,389.965546 726.766602,389.965546 936.019226,390.909546 
	C936.011902,456.946655 936.004578,522.983765 935.061096,588.985352 
	C827.773560,588.979065 720.486023,588.972595 613.198486,588.969055 
	C612.033142,588.968994 610.793396,588.770630 609.727966,589.106995 
	C608.982422,589.342407 608.475159,590.332397 607.011780,591.028015 
	C602.559937,590.474426 600.349915,592.178955 601.012085,596.893311 
	C601.149780,597.873413 601.031006,598.889587 601.031067,599.889099 
	C601.031860,833.943237 601.034668,1067.997314 601.031006,1302.051514 
	C601.030518,1333.702637 600.997742,1365.353760 600.361816,1397.287964 
	C598.516113,1400.194336 597.085999,1403.496216 594.757629,1405.943481 
	C578.956970,1422.550537 563.027893,1439.036987 547.015015,1455.440186 
	C537.143005,1465.552856 527.003845,1475.404175 517.064758,1485.452271 
	C491.429596,1511.367920 465.900909,1537.389282 440.213013,1563.252441 
	C415.922363,1587.708862 391.610352,1612.146973 367.024841,1636.305176 
	C360.467804,1642.748169 355.661133,1651.213379 346.612152,1654.975586 
	C346.261536,1655.121338 346.141663,1655.822144 345.026825,1656.265503 
	C332.925262,1656.265503 320.823700,1656.265503 308.722137,1656.265503 
	C308.718567,1656.801758 308.714996,1657.337891 308.711426,1657.874146 
	C310.297638,1657.948608 311.883850,1658.088257 313.470062,1658.088257 
	C700.942200,1658.098267 1088.414307,1658.100342 1475.886475,1658.062012 
	C1477.992798,1658.061768 1480.098999,1657.491821 1482.583374,1656.894531 
	C1482.826782,1656.676025 1483.003296,1656.412598 1483.190186,1655.156250 
	C1483.200073,1556.899170 1483.213745,1458.641968 1483.218750,1360.384888 
	C1483.223999,1258.630371 1483.229858,1156.875977 1483.168945,1055.121460 
	C1483.167480,1052.565552 1482.386963,1050.010010 1482.059326,1047.465698 
	C1482.059326,1047.465698 1482.049072,1047.555542 1481.675415,1046.736328 
	C1479.411499,1046.470093 1477.147827,1045.971558 1474.883789,1045.970825 
	C1366.423096,1045.935425 1257.962524,1045.935425 1149.501831,1045.950073 
	C1111.683105,1045.955200 1073.864502,1046.008057 1035.321289,1046.320679 
	C1034.900757,1048.358154 1034.115234,1050.395020 1034.112793,1052.433105 
	C1034.045532,1107.874878 1034.049194,1163.316772 1034.092407,1218.758667 
	C1034.094116,1220.875977 1034.607300,1222.992676 1035.313965,1225.752075 
	C1037.698608,1226.155029 1040.083008,1226.908203 1042.467896,1226.910278 
	C1116.162354,1226.973145 1189.856689,1226.962036 1263.551147,1226.964966 
	C1265.214355,1226.965088 1266.924683,1226.764282 1268.524780,1227.090576 
	C1269.656250,1227.321167 1271.504395,1228.227173 1271.550903,1228.929810 
	C1271.944458,1234.879272 1276.264038,1233.855713 1280.028320,1234.918945 
	C1280.041260,1240.732422 1280.055542,1246.545898 1280.066772,1252.359375 
	C1280.127075,1283.584717 1280.186768,1314.809937 1280.154785,1346.962769 
	C1280.190552,1372.984741 1280.226318,1399.006714 1280.184570,1425.959229 
	C1280.101562,1446.001465 1280.018555,1466.043823 1279.085571,1486.092041 
	C1276.833252,1486.753906 1272.706177,1487.248291 1272.629639,1488.104614 
	C1272.089722,1494.148315 1267.916626,1493.028076 1264.241211,1493.028198 
	C1048.822021,1493.037598 833.402893,1493.038574 617.983765,1493.037964 
	C616.318054,1493.037964 614.591736,1493.262451 613.007812,1492.893066 
	C611.940796,1492.644287 610.284363,1491.571411 610.247192,1490.801636 
	C610.002502,1485.736816 606.678711,1485.970459 603.042175,1485.470215 
	C602.411621,1481.915649 601.781006,1478.361084 601.779663,1474.467163 
	C602.186951,1468.583984 602.949158,1462.700806 602.950562,1456.817505 
	C603.016602,1171.776245 603.027283,886.734985 602.934814,601.693726 
	C602.933289,597.130615 603.117981,593.320007 608.836426,591.268738 
	C611.607056,590.915405 614.377441,590.254578 617.148254,590.253174 
	C721.049316,590.200562 824.950378,590.216858 928.851440,590.158447 
	C931.224976,590.157104 933.598145,589.404480 936.651978,588.641113 
z"/>
<path fill="#FF4343" opacity="1.000000" stroke="none" 
	d="
M1272.531494,982.865967 
	C1272.316528,981.083130 1272.101562,979.300232 1271.500244,976.936646 
	C1269.553101,975.884644 1267.992188,975.413452 1265.979736,974.805908 
	C1265.979736,972.546936 1265.979858,970.244995 1265.979858,967.943054 
	C1265.979858,847.466064 1265.985474,726.989014 1265.935181,606.512024 
	C1265.934326,604.326721 1265.264893,602.141724 1264.907471,599.956604 
	C1264.907349,599.956604 1265.046265,599.852722 1264.659668,599.952820 
	C1262.836670,599.842834 1261.399536,599.446228 1259.964355,599.453491 
	C1251.812012,599.494812 1243.659424,599.591187 1235.508179,599.744385 
	C1182.073364,600.748718 1128.638916,601.763794 1075.204956,602.812012 
	C1072.061401,602.873718 1068.924072,603.253479 1065.368652,603.414185 
	C1053.063354,603.549500 1041.173340,603.755859 1029.036499,603.593323 
	C1028.143188,599.810608 1027.496826,596.396851 1026.850342,592.983032 
	C1026.850342,592.983032 1026.986816,592.993286 1027.072021,592.632935 
	C1026.741211,590.211121 1025.963867,588.150085 1025.961792,586.088257 
	C1025.897949,520.095154 1025.905029,454.102020 1025.929443,388.108856 
	C1025.930176,386.124451 1026.231201,384.140167 1026.392334,382.155823 
	C1026.392212,382.155823 1026.450439,381.988037 1026.897217,381.874939 
	C1028.838989,374.772797 1034.268921,375.872925 1039.265503,375.873291 
	C1267.819458,375.890320 1496.373535,375.888580 1724.927490,375.882172 
	C1727.924805,375.882080 1730.921997,375.793579 1733.919312,375.746338 
	C1734.277954,377.558533 1735.080322,379.414124 1734.908081,381.174347 
	C1734.475098,385.599640 1735.940063,387.735687 1741.107056,387.540344 
	C1741.655518,456.514557 1741.685303,524.950317 1741.691162,593.386047 
	C1741.691284,594.534424 1741.400513,595.682861 1741.245483,596.831238 
	C1740.787354,596.895996 1740.329102,596.960815 1739.198853,596.918884 
	C1737.307739,597.365234 1736.088867,597.918213 1734.869873,598.471252 
	C1734.869873,598.471252 1734.958008,598.524170 1734.741333,598.846802 
	C1734.430786,599.904602 1734.336914,600.639648 1734.243164,601.374695 
	C1734.243042,601.374695 1734.211914,601.245300 1733.789062,601.280396 
	C1711.518921,601.237183 1689.671753,601.158752 1667.375977,601.028320 
	C1655.234253,601.012207 1643.541260,601.048096 1631.848267,601.084045 
	C1631.624146,601.061951 1631.400024,601.039795 1630.510986,601.137024 
	C1627.219238,600.985535 1624.594604,600.503967 1621.964844,600.475281 
	C1582.446045,600.044922 1542.926636,599.666565 1503.406982,599.316406 
	C1501.786377,599.302063 1500.162231,599.683411 1498.539795,599.880371 
	C1498.539795,599.880371 1498.511597,599.952148 1498.013794,599.957581 
	C1497.245850,602.223511 1496.739868,604.483948 1496.739136,606.744507 
	C1496.700928,726.679016 1496.679932,846.613525 1496.794312,966.547974 
	C1496.799072,971.573120 1496.924072,975.898743 1490.648926,976.803894 
	C1490.435547,978.440247 1490.222168,980.076599 1489.471924,982.198975 
	C1486.771118,982.732788 1484.607300,982.821472 1482.443359,982.822083 
	C1412.472778,982.841919 1342.502075,982.853394 1272.531494,982.865967 
M1041.326294,589.827820 
	C1045.197998,589.827820 1049.069824,589.827820 1052.941528,589.827820 
	C1052.942871,589.556152 1052.944214,589.284424 1052.945557,589.012756 
	C1049.014404,589.012756 1045.083252,589.012756 1041.156616,588.073853 
	C1041.158813,563.126221 1041.148682,538.178528 1041.165649,513.230896 
	C1041.193604,472.151886 1041.239136,431.072876 1042.179321,390.032104 
	C1227.624756,390.035461 1413.070190,390.038208 1598.515625,390.048126 
	C1601.346680,390.048279 1604.177734,390.137482 1606.815430,390.822510 
	C1603.313599,393.812531 1600.027466,397.110138 1596.274170,399.741547 
	C1575.577515,414.252167 1554.762939,428.594666 1533.996216,443.005798 
	C1517.610596,454.376709 1501.244263,465.775482 1484.854004,477.139648 
	C1470.366699,487.184296 1455.808105,497.126923 1441.371826,507.244049 
	C1424.351196,519.172241 1407.518555,531.370239 1390.438477,543.211731 
	C1371.718018,556.190430 1352.770752,568.841309 1333.992676,581.737305 
	C1318.642700,592.279053 1303.472656,603.084045 1288.061890,613.534912 
	C1282.758789,617.131226 1279.975952,621.631958 1279.992065,628.040771 
	C1280.053711,652.700195 1280.037231,677.359802 1280.040283,702.954224 
	C1280.028442,740.334473 1280.000000,777.714783 1280.045166,815.094971 
	C1280.047974,817.376648 1280.633423,819.657654 1280.668579,822.731445 
	C1280.464233,824.874390 1280.084106,827.017090 1280.081665,829.160217 
	C1280.034668,871.117615 1280.017700,913.074951 1280.056641,955.032288 
	C1280.058716,957.322876 1280.600708,959.612854 1280.860107,962.710693 
	C1280.750977,964.493042 1280.641724,966.275452 1280.474854,969.000854 
	C1347.892822,969.000854 1414.892700,969.000854 1482.565918,968.450623 
	C1482.836670,966.838135 1483.344238,965.225708 1483.344238,963.613220 
	C1483.346558,854.155823 1483.315308,744.698486 1483.220093,635.241150 
	C1483.218140,633.007874 1482.428955,630.775330 1482.000488,627.736816 
	C1482.663696,621.498840 1483.441284,615.270203 1483.955688,609.020020 
	C1484.413086,603.461182 1484.391724,598.394104 1487.309570,592.746033 
	C1490.722656,586.138977 1494.205078,584.107605 1500.781738,584.955017 
	C1502.904907,585.228638 1505.086182,585.051697 1507.914551,585.445129 
	C1519.369507,585.923645 1530.824097,586.781677 1542.279541,586.794250 
	C1560.744019,586.814453 1579.209229,586.277344 1598.577148,586.014282 
	C1605.371582,586.332886 1612.165771,586.902039 1618.960571,586.909668 
	C1628.413086,586.920227 1637.866211,586.510132 1647.662842,586.855591 
	C1648.735474,587.179871 1649.806396,587.780823 1650.881104,587.787903 
	C1675.271973,587.947144 1699.663452,588.074097 1724.054565,588.057251 
	C1725.364624,588.056396 1726.673828,586.744202 1727.988892,585.099854 
	C1727.986084,550.353882 1728.006104,515.607849 1727.939331,480.862061 
	C1727.933716,477.899475 1727.349609,474.937988 1727.344238,471.207306 
	C1727.560059,469.568390 1727.960327,467.929810 1727.963623,466.290466 
	C1728.005005,445.825226 1728.020142,425.359772 1727.943237,404.894714 
	C1727.934570,402.599030 1727.319336,400.305634 1726.995361,397.130005 
	C1726.995850,395.074860 1726.996338,393.019714 1727.199463,390.343475 
	C1726.460815,385.837921 1722.920166,388.164825 1720.892090,388.163544 
	C1513.992676,388.034454 1307.093018,388.042786 1100.193481,388.042816 
	C1082.035645,388.042816 1063.877441,387.990204 1045.720581,388.120331 
	C1043.777222,388.134216 1041.841431,389.214722 1039.767212,390.756927 
	C1039.753418,455.454010 1039.730835,520.151062 1039.781250,584.848083 
	C1039.782349,586.324341 1040.610596,587.799988 1041.326294,589.827820 
M1243.500000,584.877991 
	C1231.176758,584.877991 1218.853516,584.877991 1206.530151,584.877991 
	C1225.649414,585.123657 1244.776611,588.893677 1263.886597,584.884216 
	C1257.424316,584.884216 1250.962158,584.884216 1243.500000,584.877991 
M1068.365601,588.657104 
	C1087.150879,588.657104 1105.936279,588.657104 1124.721558,588.657104 
	C1124.708618,588.065369 1124.695557,587.473694 1124.682617,586.881958 
	C1105.750244,587.471008 1086.817993,588.059998 1068.365601,588.657104 
M1163.511230,586.152466 
	C1159.225464,586.152466 1154.939575,586.152466 1150.653809,586.152466 
	C1150.669189,586.602112 1150.684448,587.051819 1150.699829,587.501465 
	C1164.621704,587.501465 1178.543457,587.501465 1192.465210,587.501465 
	C1192.470459,587.048645 1192.475586,586.595825 1192.480835,586.143005 
	C1183.156494,586.143005 1173.832153,586.143005 1163.511230,586.152466 
z"/>
<path fill="#DBEBFB" opacity="1.000000" stroke="none" 
	d="
M1264.961792,1479.957642 
	C1262.964600,1480.005371 1260.967285,1480.094849 1258.970093,1480.094849 
	C1047.183716,1480.101196 835.397400,1480.104248 623.611084,1480.088745 
	C614.976868,1480.088135 615.993835,1481.023926 615.993347,1472.250610 
	C615.977661,1185.314331 615.979553,898.377991 615.997375,611.441650 
	C615.997498,609.127258 616.252930,606.812805 616.751465,604.270142 
	C617.076538,605.706055 617.006836,607.370300 617.006836,609.034546 
	C617.001953,896.864380 617.002136,1184.694214 617.002075,1472.524048 
	C617.002075,1474.500122 617.002075,1476.476196 617.002075,1478.986206 
	C832.857483,1478.986206 1048.454224,1478.986206 1264.503662,1479.196045 
	C1264.958008,1479.589844 1264.959961,1479.773804 1264.961792,1479.957642 
z"/>
<path fill="#9BC7F2" opacity="1.000000" stroke="none" 
	d="
M298.417816,382.030823 
	C293.644043,382.314484 292.929504,385.377136 292.930695,390.043854 
	C293.037781,812.309692 293.034241,1234.575562 292.970337,1656.841431 
	C292.969696,1661.053711 293.124146,1664.508789 298.780609,1664.802368 
	C296.876190,1665.104492 294.716797,1665.104492 292.283508,1665.104492 
	C292.283508,1237.472168 292.283508,810.031799 292.283508,382.057587 
	C294.130890,382.057587 296.055298,382.057587 298.417816,382.030823 
z"/>
<path fill="#9BC7F2" opacity="1.000000" stroke="none" 
	d="
M298.927979,1665.440063 
	C299.556610,1666.754883 300.217560,1668.527100 301.143555,1671.010010 
	C302.755371,1671.010010 304.703674,1671.010132 306.652008,1671.010132 
	C699.082458,1671.010132 1091.512939,1671.010254 1483.943359,1671.004761 
	C1485.608154,1671.004761 1487.272827,1670.922241 1489.392944,1670.817139 
	C1489.483032,1671.165649 1489.144897,1671.895508 1488.747681,1671.929199 
	C1487.092529,1672.069580 1485.419556,1672.007080 1483.753052,1672.007080 
	C1090.770996,1672.008057 697.788940,1672.008179 304.806885,1672.008057 
	C303.001678,1672.008057 301.196472,1672.007935 298.960327,1672.007935 
	C298.960327,1669.777222 298.960327,1667.837280 298.927979,1665.440063 
z"/>
<path fill="#FF7373" opacity="1.000000" stroke="none" 
	d="
M1733.653809,375.434143 
	C1730.921997,375.793579 1727.924805,375.882080 1724.927490,375.882172 
	C1496.373535,375.888580 1267.819458,375.890320 1039.265503,375.873291 
	C1034.268921,375.872925 1028.838989,374.772797 1026.981689,381.902100 
	C1026.819092,379.904724 1027.018677,377.767151 1027.251953,375.270081 
	C1028.394897,375.191376 1029.673340,375.026215 1030.951904,375.026154 
	C1263.932495,375.014954 1496.913208,375.015381 1729.893799,375.020111 
	C1731.058594,375.020142 1732.223511,375.086578 1733.653809,375.434143 
z"/>
<path fill="#64A7EB" opacity="1.000000" stroke="none" 
	d="
M939.039062,381.587891 
	C938.483154,376.407684 934.881897,375.872772 930.028137,375.875183 
	C721.709839,375.978363 513.391418,375.963745 305.073059,375.966003 
	C303.406647,375.966034 301.740265,376.000092 299.615234,376.024658 
	C300.611084,375.688019 302.065521,375.044861 303.520050,375.044556 
	C513.881897,374.999756 724.243713,375.001617 934.605591,375.001404 
	C935.910217,375.001404 937.214844,375.001404 939.009094,375.001404 
	C939.009094,377.259155 939.009094,379.195282 939.039062,381.587891 
z"/>
<path fill="#DBEBFB" opacity="1.000000" stroke="none" 
	d="
M1497.258789,1664.193604 
	C1496.850952,1661.832153 1496.752319,1659.169189 1496.752319,1656.506348 
	C1496.745117,1453.022339 1496.745850,1249.538452 1496.742065,1046.054443 
	C1496.742065,1044.055664 1496.688110,1042.056885 1496.606201,1039.602295 
	C1497.030518,1039.604614 1497.839478,1040.010986 1497.920410,1040.530884 
	C1498.123657,1041.833252 1498.002075,1043.187012 1498.002075,1044.520142 
	C1498.002686,1249.168213 1498.003784,1453.816162 1497.986694,1658.464233 
	C1497.986572,1660.273560 1497.743408,1662.082764 1497.258789,1664.193604 
z"/>
<path fill="#DBEBFB" opacity="1.000000" stroke="none" 
	d="
M1489.852539,1031.920288 
	C1487.358643,1032.322876 1484.864258,1032.191162 1482.369751,1032.191040 
	C1331.193970,1032.180054 1180.018066,1032.179810 1028.377930,1032.074707 
	C1029.423828,1031.656128 1030.934204,1031.066040 1032.444702,1031.065552 
	C1183.442139,1031.023926 1334.439697,1031.025513 1485.437134,1031.044067 
	C1486.908813,1031.044189 1488.380371,1031.307129 1489.852539,1031.920288 
z"/>
<path fill="#FFD6D6" opacity="1.000000" stroke="none" 
	d="
M1741.665405,596.876953 
	C1741.400513,595.682861 1741.691284,594.534424 1741.691162,593.386047 
	C1741.685303,524.950317 1741.655518,456.514557 1741.556519,387.625244 
	C1741.979492,387.426208 1742.859985,387.630402 1742.900757,387.943970 
	C1743.071289,389.253174 1742.999023,390.595184 1742.999023,391.925171 
	C1743.000732,458.605347 1743.007202,525.285522 1742.962524,591.965698 
	C1742.961304,593.618225 1742.390381,595.270325 1741.665405,596.876953 
z"/>
<path fill="#FFD6D6" opacity="1.000000" stroke="none" 
	d="
M1491.020752,976.826782 
	C1496.924072,975.898743 1496.799072,971.573120 1496.794312,966.547974 
	C1496.679932,846.613525 1496.700928,726.679016 1496.739136,606.744507 
	C1496.739868,604.483948 1497.245850,602.223511 1498.001953,599.920898 
	C1498.329956,601.843201 1498.033813,603.807678 1498.033447,605.772095 
	C1498.011475,727.314880 1498.014038,848.857666 1498.013550,970.400452 
	C1498.013550,976.756104 1498.011841,976.756104 1491.020752,976.826782 
z"/>
<path fill="#FFD6D6" opacity="1.000000" stroke="none" 
	d="
M1264.964844,600.425659 
	C1265.264893,602.141724 1265.934326,604.326721 1265.935181,606.512024 
	C1265.985474,726.989014 1265.979858,847.466064 1265.979858,967.943054 
	C1265.979858,970.244995 1265.979736,972.546936 1265.979736,974.805908 
	C1267.992188,975.413452 1269.553101,975.884644 1271.302002,976.584106 
	C1265.039429,976.885620 1265.038208,976.885620 1265.037842,970.360229 
	C1265.032471,847.205078 1265.027344,724.049866 1264.964844,600.425659 
z"/>
<path fill="#FFD6D6" opacity="1.000000" stroke="none" 
	d="
M1065.783936,603.485229 
	C1068.924072,603.253479 1072.061401,602.873718 1075.204956,602.812012 
	C1128.638916,601.763794 1182.073364,600.748718 1235.508179,599.744385 
	C1243.659424,599.591187 1251.812012,599.494812 1259.964355,599.453491 
	C1261.399536,599.446228 1262.836670,599.842834 1264.712646,600.021545 
	C1248.572510,600.300659 1231.991089,600.542114 1215.413696,600.950623 
	C1207.013794,601.157532 1198.624878,601.828430 1190.224976,602.005676 
	C1170.322388,602.425842 1150.416016,602.679932 1130.511230,602.994141 
	C1109.275024,603.329346 1088.038940,603.656494 1066.302124,603.958984 
	C1065.801514,603.930908 1065.783936,603.485168 1065.783936,603.485229 
z"/>
<path fill="#DBEBFB" opacity="1.000000" stroke="none" 
	d="
M618.030701,604.370850 
	C619.129333,603.898193 620.454895,603.741150 621.780396,603.741028 
	C726.305603,603.732117 830.830811,603.735474 935.356018,603.740967 
	C936.021301,603.740967 936.686523,603.784363 937.845215,603.861206 
	C936.993713,604.278442 935.648865,604.960022 934.303833,604.960632 
	C829.611145,605.009583 724.918457,605.005615 620.225769,604.994751 
	C619.569702,604.994690 618.913635,604.841370 618.030701,604.370850 
z"/>
<path fill="#9BC7F2" opacity="1.000000" stroke="none" 
	d="
M1265.293701,1479.690796 
	C1264.959961,1479.773804 1264.958008,1479.589844 1264.966797,1479.129883 
	C1264.963989,1399.523682 1264.950562,1320.193359 1264.815430,1240.399414 
	C1265.195679,1241.557373 1266.135742,1243.178589 1266.137329,1244.800415 
	C1266.209351,1321.540527 1266.203247,1398.280762 1266.176147,1475.020874 
	C1266.175537,1476.488525 1265.817139,1477.956299 1265.293701,1479.690796 
z"/>
<path fill="#7EB4EB" opacity="1.000000" stroke="none" 
	d="
M939.499939,597.055542 
	C940.139648,596.787354 941.218140,596.257385 942.335205,596.157043 
	C950.021729,595.466492 950.028687,595.495361 950.028870,587.987061 
	C950.030090,522.415527 950.039307,456.843964 950.016296,391.272400 
	C950.013611,383.780609 951.182190,382.446838 942.044495,382.887909 
	C941.258301,382.925873 940.450439,382.515900 939.295288,382.112823 
	C942.748901,381.911652 946.559814,381.911652 950.683838,381.911652 
	C950.683838,453.594421 950.683838,525.014587 950.683838,596.992676 
	C947.154114,596.992676 943.555359,596.992676 939.499939,597.055542 
z"/>
<path fill="#FFD6D6" opacity="1.000000" stroke="none" 
	d="
M1272.821289,983.233948 
	C1342.502075,982.853394 1412.472778,982.841919 1482.443359,982.822083 
	C1484.607300,982.821472 1486.771118,982.732788 1489.388672,982.612183 
	C1488.216309,983.020264 1486.591431,983.917908 1484.964600,983.921265 
	C1446.645264,984.000000 1408.325684,983.982300 1370.006226,983.982300 
	C1339.517212,983.982300 1309.028198,983.988586 1278.539185,983.965820 
	C1276.729614,983.964478 1274.920410,983.728699 1272.821289,983.233948 
z"/>
<path fill="#FFD6D6" opacity="1.000000" stroke="none" 
	d="
M1025.924316,382.164673 
	C1026.231201,384.140167 1025.930176,386.124451 1025.929443,388.108856 
	C1025.905029,454.102020 1025.897949,520.095154 1025.961792,586.088257 
	C1025.963867,588.150085 1026.741211,590.211121 1027.066528,592.701172 
	C1026.341553,592.769226 1025.283325,592.516052 1025.159180,592.026184 
	C1024.881714,590.931396 1025.068726,589.718628 1025.068726,588.553894 
	C1025.068237,521.401733 1025.065186,454.249603 1025.083862,387.097443 
	C1025.084229,385.456085 1025.326660,383.814819 1025.924316,382.164673 
z"/>
<path fill="#FFD6D6" opacity="1.000000" stroke="none" 
	d="
M1499.050659,599.895508 
	C1500.162231,599.683411 1501.786377,599.302063 1503.406982,599.316406 
	C1542.926636,599.666565 1582.446045,600.044922 1621.964844,600.475281 
	C1624.594604,600.503967 1627.219238,600.985535 1630.193604,601.021362 
	C1596.256836,600.874390 1561.972900,601.047485 1527.689209,600.995300 
	C1518.312744,600.981018 1508.937378,600.290710 1499.050659,599.895508 
z"/>
<path fill="#DBEBFB" opacity="1.000000" stroke="none" 
	d="
M1020.619690,1040.044678 
	C1021.051941,1068.921509 1021.115967,1098.024658 1021.136353,1127.127930 
	C1021.160767,1161.887085 1021.147827,1196.646362 1021.127686,1231.907837 
	C1020.734924,1231.226440 1020.043091,1230.043091 1020.042175,1228.859131 
	C1019.992493,1166.486572 1020.000732,1104.113892 1020.013245,1041.741333 
	C1020.013367,1041.251221 1020.156067,1040.761108 1020.619690,1040.044678 
z"/>
<path fill="#FFD6D6" opacity="1.000000" stroke="none" 
	d="
M1667.824585,601.080383 
	C1689.671753,601.158752 1711.518921,601.237183 1733.854248,601.267456 
	C1733.229980,601.820374 1732.124146,602.929016 1731.004150,602.943542 
	C1720.353516,603.081848 1709.698242,603.169739 1699.048706,603.001282 
	C1688.981079,602.842102 1678.918701,602.357483 1668.370728,601.744751 
	C1667.887451,601.473389 1667.824585,601.080383 1667.824585,601.080383 
z"/>
<path fill="#DBEBFB" opacity="1.000000" stroke="none" 
	d="
M1065.368652,603.414185 
	C1065.783936,603.485168 1065.801514,603.930908 1065.862549,604.147217 
	C1060.578979,604.588318 1055.235840,604.936768 1049.889282,605.007324 
	C1042.801758,605.101013 1035.711304,604.977600 1028.656250,604.554810 
	C1028.887939,604.095520 1029.085571,604.028870 1029.283325,603.962219 
	C1041.173340,603.755859 1053.063354,603.549500 1065.368652,603.414185 
z"/>
<path fill="#DBEBFB" opacity="1.000000" stroke="none" 
	d="
M1667.375977,601.028320 
	C1667.824585,601.080383 1667.887451,601.473389 1667.901733,601.671875 
	C1656.048706,601.859497 1644.181519,601.848633 1632.081299,601.460876 
	C1643.541260,601.048096 1655.234253,601.012207 1667.375977,601.028320 
z"/>
<path fill="#FFD6D6" opacity="1.000000" stroke="none" 
	d="
M1029.036499,603.593323 
	C1029.085571,604.028870 1028.887939,604.095520 1028.386719,604.235718 
	C1027.714722,600.835388 1027.346558,597.361389 1026.914307,593.435242 
	C1027.496826,596.396851 1028.143188,599.810608 1029.036499,603.593323 
z"/>
<path fill="#FFD6D6" opacity="1.000000" stroke="none" 
	d="
M1735.226074,598.261719 
	C1736.088867,597.918213 1737.307739,597.365234 1738.849854,596.904480 
	C1737.976074,597.348572 1736.779297,597.700439 1735.226074,598.261719 
z"/>
<path fill="#FFD6D6" opacity="1.000000" stroke="none" 
	d="
M1734.618652,601.370483 
	C1734.336914,600.639648 1734.430786,599.904602 1734.691162,598.835571 
	C1734.903198,599.456543 1734.948730,600.411377 1734.618652,601.370483 
z"/>
<path fill="#DBEBFB" opacity="1.000000" stroke="none" 
	d="
M1027.908813,1032.085205 
	C1027.807861,1032.126831 1027.493042,1032.123169 1027.182983,1032.411377 
	C1027.202759,1032.364136 1027.371826,1032.143066 1027.908813,1032.085205 
z"/>
<path fill="#3987D4" opacity="1.000000" stroke="none" 
	d="
M601.150391,1474.806519 
	C601.781006,1478.361084 602.411621,1481.915649 603.099243,1486.239746 
	C604.657715,1488.248413 607.383179,1489.430542 607.444031,1490.736694 
	C607.679810,1495.796387 611.004639,1495.022583 614.093933,1495.025513 
	C622.090820,1495.033081 630.087646,1495.016479 638.084534,1495.026367 
	C673.735474,1495.070801 709.386475,1495.121094 745.222778,1495.473999 
	C747.119873,1496.210938 748.871887,1496.528564 750.530701,1497.111450 
	C751.865723,1497.580566 753.756226,1498.098999 754.161865,1499.098267 
	C754.526611,1499.996582 753.494202,1501.849487 752.584778,1502.818115 
	C743.023926,1513.001709 733.526978,1523.254028 723.698364,1533.176147 
	C701.629272,1555.455444 679.288208,1577.465576 657.240784,1599.766235 
	C642.999390,1614.171509 629.192261,1629.005859 614.962585,1643.422852 
	C609.680115,1648.774902 604.656189,1655.057983 595.685486,1654.211304 
	C594.888733,1654.136108 593.932800,1655.747437 592.583984,1656.644531 
	C591.119629,1656.761230 590.122131,1656.851074 589.124634,1656.850952 
	C509.698730,1656.846924 430.272797,1656.839478 350.846893,1656.802124 
	C349.202606,1656.801392 347.558502,1656.451294 345.914276,1656.264160 
	C346.141663,1655.822144 346.261536,1655.121338 346.612152,1654.975586 
	C355.661133,1651.213379 360.467804,1642.748169 367.024841,1636.305176 
	C391.610352,1612.146973 415.922363,1587.708862 440.213013,1563.252441 
	C465.900909,1537.389282 491.429596,1511.367920 517.064758,1485.452271 
	C527.003845,1475.404175 537.143005,1465.552856 547.015015,1455.440186 
	C563.027893,1439.036987 578.956970,1422.550537 594.757629,1405.943481 
	C597.085999,1403.496216 598.516113,1400.194336 600.682495,1397.614380 
	C601.052246,1423.562744 601.101318,1449.184570 601.150391,1474.806519 
z"/>
<path fill="#3471AE" opacity="1.000000" stroke="none" 
	d="
M1279.935547,1486.086060 
	C1280.018555,1466.043823 1280.101562,1446.001465 1280.546387,1425.535522 
	C1284.140991,1427.338013 1286.432007,1426.231934 1289.032227,1423.575684 
	C1313.004028,1399.086792 1337.075195,1374.694946 1361.179810,1350.336548 
	C1398.278564,1312.847290 1435.389160,1275.369263 1472.606812,1237.998291 
	C1476.739990,1233.848267 1479.111328,1229.400635 1479.144043,1223.487915 
	C1479.152344,1221.988403 1480.858887,1220.498169 1481.845703,1219.468750 
	C1481.864868,1242.624268 1481.823730,1265.314575 1481.428223,1288.079590 
	C1480.368774,1289.505371 1479.524780,1290.803467 1478.984009,1292.217651 
	C1477.118530,1297.096436 1476.567017,1303.094116 1473.332886,1306.718018 
	C1463.497559,1317.738770 1452.592896,1327.800415 1442.193604,1338.323486 
	C1419.491089,1361.295410 1396.868896,1384.346680 1374.167847,1407.320190 
	C1342.445923,1439.422852 1310.643188,1471.445557 1278.945435,1503.571899 
	C1235.093140,1548.016968 1191.383667,1592.603394 1147.398560,1636.916626 
	C1141.527222,1642.831665 1134.353027,1647.443359 1127.909790,1652.811890 
	C1126.919922,1653.636475 1126.622803,1655.292603 1125.541748,1656.634644 
	C1092.731201,1656.660400 1060.384399,1656.615601 1028.070801,1656.242432 
	C1029.002075,1654.564209 1029.701782,1653.012085 1030.835083,1651.902588 
	C1034.274292,1648.535278 1038.038452,1645.493164 1041.397339,1642.052246 
	C1064.656494,1618.226196 1087.724609,1594.212402 1111.091187,1570.492554 
	C1132.934204,1548.318970 1155.078979,1526.443115 1177.056641,1504.401978 
	C1178.482910,1502.971313 1179.614624,1501.247070 1181.598511,1498.764648 
	C1178.831909,1498.378174 1177.226440,1498.324219 1175.721069,1497.907715 
	C1172.790527,1497.096924 1169.916260,1496.083374 1167.484131,1495.108643 
	C1191.857178,1495.036987 1215.764526,1495.008423 1239.671997,1494.984863 
	C1249.633545,1494.974976 1259.596924,1495.063477 1269.554810,1494.872803 
	C1270.962280,1494.845947 1273.498047,1493.540527 1273.538208,1492.729248 
	C1273.712280,1489.214966 1275.348145,1488.105835 1278.563477,1488.140625 
	C1279.013306,1488.145508 1279.477783,1486.804199 1279.935547,1486.086060 
z"/>
<path fill="#3577B8" opacity="1.000000" stroke="none" 
	d="
M1280.246582,1346.035278 
	C1280.186768,1314.809937 1280.127075,1283.584717 1280.066772,1252.359375 
	C1280.055542,1246.545898 1280.041260,1240.732422 1280.049561,1234.465576 
	C1280.070801,1234.012085 1280.151123,1234.062256 1280.509155,1234.088135 
	C1286.673340,1235.302979 1283.674316,1241.197998 1286.227173,1244.563721 
	C1287.482056,1243.705688 1288.670044,1243.115845 1289.578979,1242.237183 
	C1298.061523,1234.038330 1306.671265,1225.960815 1314.908081,1217.520142 
	C1332.333130,1199.663696 1349.394897,1181.451172 1366.896606,1163.671143 
	C1402.140015,1127.867188 1437.623779,1092.299683 1472.825928,1056.455444 
	C1475.028931,1054.212158 1475.655518,1050.420654 1477.433105,1047.266113 
	C1479.250122,1047.307007 1480.649658,1047.431274 1482.049072,1047.555542 
	C1482.049072,1047.555542 1482.059326,1047.465698 1482.020386,1047.967529 
	C1481.912476,1081.289429 1481.843506,1114.109497 1481.399658,1147.037842 
	C1479.367798,1150.816772 1477.734375,1154.498169 1476.044312,1158.153564 
	C1475.091431,1160.214355 1474.489014,1162.669312 1472.976074,1164.205078 
	C1435.633423,1202.108887 1398.190063,1239.913452 1360.764404,1277.735352 
	C1359.828003,1278.681641 1358.891235,1279.627563 1357.949951,1280.568970 
	C1349.165771,1289.355225 1340.275757,1298.038940 1331.625610,1306.955322 
	C1323.424805,1315.408569 1315.576416,1324.203613 1307.382568,1332.663818 
	C1300.862183,1339.396118 1294.054810,1345.850342 1288.177979,1351.637207 
	C1285.028320,1349.412598 1282.637451,1347.723999 1280.246582,1346.035278 
z"/>
<path fill="#3473B2" opacity="1.000000" stroke="none" 
	d="
M1280.200684,1346.499023 
	C1282.637451,1347.723999 1285.028320,1349.412598 1288.177979,1351.637207 
	C1294.054810,1345.850342 1300.862183,1339.396118 1307.382568,1332.663818 
	C1315.576416,1324.203613 1323.424805,1315.408569 1331.625610,1306.955322 
	C1340.275757,1298.038940 1349.165771,1289.355225 1357.949951,1280.568970 
	C1358.891235,1279.627563 1359.828003,1278.681641 1360.764404,1277.735352 
	C1398.190063,1239.913452 1435.633423,1202.108887 1472.976074,1164.205078 
	C1474.489014,1162.669312 1475.091431,1160.214355 1476.044312,1158.153564 
	C1477.734375,1154.498169 1479.367798,1150.816772 1481.445068,1147.451172 
	C1481.838623,1171.505493 1481.811890,1195.254517 1481.785156,1219.003662 
	C1480.858887,1220.498169 1479.152344,1221.988403 1479.144043,1223.487915 
	C1479.111328,1229.400635 1476.739990,1233.848267 1472.606812,1237.998291 
	C1435.389160,1275.369263 1398.278564,1312.847290 1361.179810,1350.336548 
	C1337.075195,1374.694946 1313.004028,1399.086792 1289.032227,1423.575684 
	C1286.432007,1426.231934 1284.140991,1427.338013 1280.585205,1425.070312 
	C1280.226318,1399.006714 1280.190552,1372.984741 1280.200684,1346.499023 
z"/>
<path fill="#64A7EB" opacity="1.000000" stroke="none" 
	d="
M601.465027,1474.636841 
	C601.101318,1449.184570 601.052246,1423.562744 600.991455,1397.472900 
	C600.997742,1365.353760 601.030518,1333.702637 601.031006,1302.051514 
	C601.034668,1067.997314 601.031860,833.943237 601.031067,599.889099 
	C601.031006,598.889587 601.149780,597.873413 601.012085,596.893311 
	C600.349915,592.178955 602.559937,590.474426 607.493164,591.129272 
	C607.974609,591.230591 608.006104,591.498718 608.006104,591.498718 
	C603.117981,593.320007 602.933289,597.130615 602.934814,601.693726 
	C603.027283,886.734985 603.016602,1171.776245 602.950562,1456.817505 
	C602.949158,1462.700806 602.186951,1468.583984 601.465027,1474.636841 
z"/>
<path fill="#7EB4EB" opacity="1.000000" stroke="none" 
	d="
M1279.510498,1486.089111 
	C1279.477783,1486.804199 1279.013306,1488.145508 1278.563477,1488.140625 
	C1275.348145,1488.105835 1273.712280,1489.214966 1273.538208,1492.729248 
	C1273.498047,1493.540527 1270.962280,1494.845947 1269.554810,1494.872803 
	C1259.596924,1495.063477 1249.633545,1494.974976 1239.671997,1494.984863 
	C1215.764526,1495.008423 1191.857178,1495.036987 1167.016602,1495.055176 
	C1126.062622,1495.084595 1086.041870,1495.122314 1045.552979,1495.109253 
	C1001.732727,1495.092773 958.380676,1495.127075 914.560303,1495.114624 
	C895.972839,1495.046509 877.853699,1494.994263 859.734619,1495.010376 
	C821.502197,1495.044434 783.269836,1495.114258 745.037415,1495.169434 
	C709.386475,1495.121094 673.735474,1495.070801 638.084534,1495.026367 
	C630.087646,1495.016479 622.090820,1495.033081 614.093933,1495.025513 
	C611.004639,1495.022583 607.679810,1495.796387 607.444031,1490.736694 
	C607.383179,1489.430542 604.657715,1488.248413 603.164978,1486.656738 
	C606.678711,1485.970459 610.002502,1485.736816 610.247192,1490.801636 
	C610.284363,1491.571411 611.940796,1492.644287 613.007812,1492.893066 
	C614.591736,1493.262451 616.318054,1493.037964 617.983765,1493.037964 
	C833.402893,1493.038574 1048.822021,1493.037598 1264.241211,1493.028198 
	C1267.916626,1493.028076 1272.089722,1494.148315 1272.629639,1488.104614 
	C1272.706177,1487.248291 1276.833252,1486.753906 1279.510498,1486.089111 
z"/>
<path fill="#7EB4EB" opacity="1.000000" stroke="none" 
	d="
M936.004395,389.965546 
	C726.766602,389.965546 517.528748,389.965546 308.290955,389.965546 
	C308.252258,389.478149 308.213531,388.990753 308.174805,388.503357 
	C310.311432,388.368652 312.448059,388.116577 314.584717,388.116150 
	C410.074371,388.096619 505.564056,388.099213 601.053711,388.099213 
	C710.208557,388.099213 819.363403,388.091675 928.518250,388.148987 
	C930.897888,388.150238 933.277161,388.893768 935.831055,389.650238 
	C936.005554,390.009460 936.004395,389.965546 936.004395,389.965546 
z"/>
<path fill="#7EB4EB" opacity="1.000000" stroke="none" 
	d="
M1028.037476,1656.570801 
	C1060.384399,1656.615601 1092.731201,1656.660400 1126.005859,1656.703125 
	C1150.962646,1656.656616 1174.991699,1656.612061 1199.483276,1656.636719 
	C1221.639893,1656.658203 1243.333862,1656.610596 1265.489990,1656.628540 
	C1337.897705,1656.723145 1409.843262,1656.752197 1481.892822,1656.883301 
	C1481.996582,1656.985107 1482.205322,1657.187988 1482.205322,1657.187988 
	C1480.098999,1657.491821 1477.992798,1658.061768 1475.886475,1658.062012 
	C1088.414307,1658.100342 700.942200,1658.098267 313.470062,1658.088257 
	C311.883850,1658.088257 310.297638,1657.948608 308.711426,1657.874146 
	C308.714996,1657.337891 308.718567,1656.801758 308.722137,1656.265503 
	C320.823700,1656.265503 332.925262,1656.265503 345.470581,1656.264893 
	C347.558502,1656.451294 349.202606,1656.801392 350.846893,1656.802124 
	C430.272797,1656.839478 509.698730,1656.846924 589.124634,1656.850952 
	C590.122131,1656.851074 591.119629,1656.761230 593.044312,1656.711670 
	C648.998657,1656.748291 704.025879,1656.787964 759.053040,1656.813843 
	C760.045532,1656.814331 761.038147,1656.649414 762.492676,1656.630737 
	C804.996704,1656.745239 847.038818,1656.795044 889.080872,1656.823975 
	C891.402039,1656.825562 893.723267,1656.653198 896.505859,1656.624268 
	C936.010315,1656.735596 975.053406,1656.793701 1014.096436,1656.820923 
	C1018.743408,1656.824219 1023.390442,1656.658325 1028.037476,1656.570801 
z"/>
<path fill="#9BC7F2" opacity="1.000000" stroke="none" 
	d="
M1481.845703,1219.468750 
	C1481.811890,1195.254517 1481.838623,1171.505493 1481.819946,1147.342896 
	C1481.843506,1114.109497 1481.912476,1081.289429 1481.975586,1047.961914 
	C1482.386963,1050.010010 1483.167480,1052.565552 1483.168945,1055.121460 
	C1483.229858,1156.875977 1483.223999,1258.630371 1483.218750,1360.384888 
	C1483.213745,1458.641968 1483.200073,1556.899170 1482.898804,1655.603271 
	C1482.439087,1656.036987 1482.270630,1656.023560 1482.074219,1655.540405 
	C1482.020630,1581.042480 1481.996582,1507.014526 1481.961792,1432.986450 
	C1481.960693,1430.660522 1481.847900,1428.334595 1481.853760,1425.543579 
	C1481.876465,1402.386719 1481.832397,1379.695068 1481.853271,1356.538452 
	C1481.873047,1333.384033 1481.827759,1310.694580 1481.782593,1288.005005 
	C1481.823730,1265.314575 1481.864868,1242.624268 1481.845703,1219.468750 
z"/>
<path fill="#64A7EB" opacity="1.000000" stroke="none" 
	d="
M1280.026367,1233.995972 
	C1276.264038,1233.855713 1271.944458,1234.879272 1271.550903,1228.929810 
	C1271.504395,1228.227173 1269.656250,1227.321167 1268.524780,1227.090576 
	C1266.924683,1226.764282 1265.214355,1226.965088 1263.551147,1226.964966 
	C1189.856689,1226.962036 1116.162354,1226.973145 1042.467896,1226.910278 
	C1040.083008,1226.908203 1037.698608,1226.155029 1035.391113,1225.399292 
	C1035.663574,1225.030029 1035.858887,1225.013672 1036.478516,1225.001709 
	C1038.609375,1224.966064 1040.315674,1224.926147 1042.488770,1224.911743 
	C1085.312744,1224.917847 1127.670288,1224.898438 1170.493896,1224.907715 
	C1182.767944,1224.958984 1194.575684,1224.992554 1206.383545,1225.001465 
	C1227.172363,1225.017212 1247.961670,1224.960693 1268.749146,1225.131226 
	C1270.458618,1225.145142 1272.283325,1226.472778 1273.822632,1227.527954 
	C1275.343140,1228.570190 1276.608154,1230.003662 1277.910522,1231.338379 
	C1278.728638,1232.176880 1279.408936,1233.149658 1280.151123,1234.062256 
	C1280.151123,1234.062256 1280.070801,1234.012085 1280.026367,1233.995972 
z"/>
<path fill="#DBEBFB" opacity="1.000000" stroke="none" 
	d="
M1481.862305,1047.145996 
	C1480.649658,1047.431274 1479.250122,1047.307007 1476.970947,1047.175659 
	C1455.720825,1047.232910 1435.350464,1047.297241 1414.614746,1047.279297 
	C1413.507202,1047.251953 1412.764893,1047.307007 1411.565552,1047.270508 
	C1407.065063,1047.243042 1403.021606,1047.306885 1398.543213,1047.284912 
	C1395.747070,1047.256470 1393.386108,1047.313721 1390.568115,1047.278320 
	C1386.066528,1047.248047 1382.021729,1047.310425 1377.587402,1047.287354 
	C1376.141235,1047.259033 1375.084839,1047.316040 1373.566406,1047.279907 
	C1363.075195,1047.241699 1353.045898,1047.296509 1342.554688,1047.260620 
	C1307.369507,1047.150391 1272.646118,1047.114868 1237.922852,1047.123047 
	C1229.621338,1047.125000 1221.319702,1047.272461 1212.555664,1047.263306 
	C1153.399170,1047.188721 1094.704956,1047.203979 1036.023438,1046.924316 
	C1036.039307,1046.432617 1036.042603,1046.235840 1036.045776,1046.039062 
	C1073.864502,1046.008057 1111.683105,1045.955200 1149.501831,1045.950073 
	C1257.962524,1045.935425 1366.423096,1045.935425 1474.883789,1045.970825 
	C1477.147827,1045.971558 1479.411499,1046.470093 1481.862305,1047.145996 
z"/>
<path fill="#64A7EB" opacity="1.000000" stroke="none" 
	d="
M935.997314,589.020874 
	C936.004578,522.983765 936.011902,456.946655 936.011841,390.437561 
	C936.004395,389.965546 936.005554,390.009460 935.984375,390.002441 
	C936.621399,391.726929 937.852600,393.457550 937.855286,395.190063 
	C937.953491,458.137238 937.946655,521.084595 937.883545,584.031860 
	C937.882019,585.568726 937.080444,587.104736 936.326294,588.817322 
	C936.000671,588.993530 935.997314,589.020874 935.997314,589.020874 
z"/>
<path fill="#7EB4EB" opacity="1.000000" stroke="none" 
	d="
M1035.683594,1046.179932 
	C1036.042603,1046.235840 1036.039307,1046.432617 1036.040283,1047.377441 
	C1036.047974,1107.082642 1036.051025,1166.039917 1036.054077,1224.997192 
	C1035.858887,1225.013672 1035.663574,1225.030029 1035.175171,1225.078125 
	C1034.607300,1222.992676 1034.094116,1220.875977 1034.092407,1218.758667 
	C1034.049194,1163.316772 1034.045532,1107.874878 1034.112793,1052.433105 
	C1034.115234,1050.395020 1034.900757,1048.358154 1035.683594,1046.179932 
z"/>
<path fill="#9BC7F2" opacity="1.000000" stroke="none" 
	d="
M607.918091,591.108032 
	C608.475159,590.332397 608.982422,589.342407 609.727966,589.106995 
	C610.793396,588.770630 612.033142,588.968994 613.198486,588.969055 
	C720.486023,588.972595 827.773560,588.979065 935.529175,589.003113 
	C935.997314,589.020874 936.000671,588.993530 935.986084,588.997925 
	C933.598145,589.404480 931.224976,590.157104 928.851440,590.158447 
	C824.950378,590.216858 721.049316,590.200562 617.148254,590.253174 
	C614.377441,590.254578 611.607056,590.915405 608.421265,591.383728 
	C608.006104,591.498718 607.974609,591.230591 607.918091,591.108032 
z"/>
<path fill="#7EB4EB" opacity="1.000000" stroke="none" 
	d="
M1482.102295,1656.010254 
	C1482.270630,1656.023560 1482.439087,1656.036987 1482.860107,1656.077393 
	C1483.003296,1656.412598 1482.826782,1656.676025 1482.394287,1657.041260 
	C1482.205322,1657.187988 1481.996582,1656.985107 1481.948120,1656.681152 
	C1481.899658,1656.377197 1482.102295,1656.010254 1482.102295,1656.010254 
z"/>
<path fill="#E83E3E" opacity="1.000000" stroke="none" 
	d="
M1726.985352,398.011108 
	C1727.319336,400.305634 1727.934570,402.599030 1727.943237,404.894714 
	C1728.020142,425.359772 1728.005005,445.825226 1727.963623,466.290466 
	C1727.960327,467.929810 1727.560059,469.568390 1726.859009,471.687042 
	C1724.322876,474.059937 1722.448730,476.201263 1720.193115,477.806671 
	C1703.266724,489.853912 1686.328735,501.886993 1669.271606,513.747803 
	C1646.102051,529.859009 1622.931641,545.973938 1599.542114,561.761841 
	C1588.986450,568.886780 1577.887695,575.205200 1567.078979,581.959412 
	C1566.170044,582.527344 1565.593384,583.627014 1564.465942,584.513672 
	C1545.126709,584.725403 1526.183838,584.903137 1507.240967,585.080811 
	C1505.086182,585.051697 1502.904907,585.228638 1500.781738,584.955017 
	C1494.205078,584.107605 1490.722656,586.138977 1487.309570,592.746033 
	C1484.391724,598.394104 1484.413086,603.461182 1483.955688,609.020020 
	C1483.441284,615.270203 1482.663696,621.498840 1481.964111,628.650024 
	C1481.831543,648.041687 1481.735229,666.520020 1481.312500,685.053162 
	C1476.553589,688.476685 1472.220703,691.986877 1467.671875,695.190308 
	C1444.982910,711.168945 1422.235474,727.064331 1399.512207,742.994385 
	C1384.949951,753.203247 1370.406372,763.438904 1355.829834,773.627441 
	C1348.752075,778.574646 1341.616699,783.439575 1334.509521,788.344849 
	C1320.961792,797.695251 1307.402100,807.028442 1293.877197,816.411682 
	C1289.931396,819.149109 1286.344482,822.634155 1280.947754,821.938965 
	C1280.633423,819.657654 1280.047974,817.376648 1280.045166,815.094971 
	C1280.000000,777.714783 1280.028442,740.334473 1280.373535,702.392944 
	C1291.265503,694.615601 1301.876099,687.474121 1312.371826,680.167664 
	C1333.548584,665.425842 1354.607544,650.514099 1375.818359,635.821655 
	C1398.381226,620.192810 1421.111816,604.806091 1443.674927,589.177734 
	C1456.382690,580.375793 1468.816406,571.178040 1481.526733,562.380005 
	C1495.335327,552.821838 1509.425293,543.669189 1523.204102,534.069397 
	C1540.531494,521.997375 1557.565186,509.503296 1574.911621,497.459045 
	C1598.820801,480.858002 1622.974731,464.609833 1646.890503,448.018219 
	C1667.260620,433.886414 1687.433350,419.469971 1707.713501,405.208191 
	C1712.971069,401.510925 1718.304321,397.921234 1722.551147,395.004425 
	C1724.549072,396.359070 1725.767334,397.185059 1726.985352,398.011108 
z"/>
<path fill="#F44040" opacity="1.000000" stroke="none" 
	d="
M1726.990479,397.570526 
	C1725.767334,397.185059 1724.549072,396.359070 1722.551147,395.004425 
	C1718.304321,397.921234 1712.971069,401.510925 1707.713501,405.208191 
	C1687.433350,419.469971 1667.260620,433.886414 1646.890503,448.018219 
	C1622.974731,464.609833 1598.820801,480.858002 1574.911621,497.459045 
	C1557.565186,509.503296 1540.531494,521.997375 1523.204102,534.069397 
	C1509.425293,543.669189 1495.335327,552.821838 1481.526733,562.380005 
	C1468.816406,571.178040 1456.382690,580.375793 1443.674927,589.177734 
	C1421.111816,604.806091 1398.381226,620.192810 1375.818359,635.821655 
	C1354.607544,650.514099 1333.548584,665.425842 1312.371826,680.167664 
	C1301.876099,687.474121 1291.265503,694.615601 1280.378418,701.925537 
	C1280.037231,677.359802 1280.053711,652.700195 1279.992065,628.040771 
	C1279.975952,621.631958 1282.758789,617.131226 1288.061890,613.534912 
	C1303.472656,603.084045 1318.642700,592.279053 1333.992676,581.737305 
	C1352.770752,568.841309 1371.718018,556.190430 1390.438477,543.211731 
	C1407.518555,531.370239 1424.351196,519.172241 1441.371826,507.244049 
	C1455.808105,497.126923 1470.366699,487.184296 1484.854004,477.139648 
	C1501.244263,465.775482 1517.610596,454.376709 1533.996216,443.005798 
	C1554.762939,428.594666 1575.577515,414.252167 1596.274170,399.741547 
	C1600.027466,397.110138 1603.313599,393.812531 1607.379150,390.467255 
	C1645.844971,390.090057 1683.747070,390.055603 1721.649292,390.085266 
	C1723.432007,390.086670 1725.214233,390.658417 1726.996704,390.964569 
	C1726.996338,393.019714 1726.995850,395.074860 1726.990479,397.570526 
z"/>
<path fill="#D43B3B" opacity="1.000000" stroke="none" 
	d="
M1280.808228,822.335205 
	C1286.344482,822.634155 1289.931396,819.149109 1293.877197,816.411682 
	C1307.402100,807.028442 1320.961792,797.695251 1334.509521,788.344849 
	C1341.616699,783.439575 1348.752075,778.574646 1355.829834,773.627441 
	C1370.406372,763.438904 1384.949951,753.203247 1399.512207,742.994385 
	C1422.235474,727.064331 1444.982910,711.168945 1467.671875,695.190308 
	C1472.220703,691.986877 1476.553589,688.476685 1481.352051,685.521851 
	C1481.751587,720.081604 1481.810913,754.227539 1481.804810,788.373413 
	C1481.802612,800.863098 1481.644897,813.352844 1481.207520,825.978394 
	C1477.927368,833.382446 1471.267700,836.681458 1465.343384,840.809143 
	C1453.766602,848.875183 1442.307373,857.109985 1430.721680,865.163208 
	C1414.212036,876.639160 1397.609375,887.981506 1381.087280,899.439819 
	C1351.184692,920.177673 1321.293945,940.932861 1291.450928,961.756348 
	C1287.811768,964.295654 1284.465942,965.491028 1280.891357,961.903076 
	C1280.600708,959.612854 1280.058716,957.322876 1280.056641,955.032288 
	C1280.017700,913.074951 1280.034668,871.117615 1280.081665,829.160217 
	C1280.084106,827.017090 1280.464233,824.874390 1280.808228,822.335205 
z"/>
<path fill="#C43939" opacity="1.000000" stroke="none" 
	d="
M1280.875732,962.306885 
	C1284.465942,965.491028 1287.811768,964.295654 1291.450928,961.756348 
	C1321.293945,940.932861 1351.184692,920.177673 1381.087280,899.439819 
	C1397.609375,887.981506 1414.212036,876.639160 1430.721680,865.163208 
	C1442.307373,857.109985 1453.766602,848.875183 1465.343384,840.809143 
	C1471.267700,836.681458 1477.927368,833.382446 1481.246826,826.398804 
	C1481.691040,829.178711 1481.790405,831.674011 1481.792603,834.169434 
	C1481.832886,879.113220 1481.861572,924.057068 1481.892700,969.000854 
	C1414.892700,969.000854 1347.892822,969.000854 1280.474854,969.000854 
	C1280.641724,966.275452 1280.750977,964.493042 1280.875732,962.306885 
z"/>
<path fill="#E03D3D" opacity="1.000000" stroke="none" 
	d="
M1564.862305,584.479675 
	C1565.593384,583.627014 1566.170044,582.527344 1567.078979,581.959412 
	C1577.887695,575.205200 1588.986450,568.886780 1599.542114,561.761841 
	C1622.931641,545.973938 1646.102051,529.859009 1669.271606,513.747803 
	C1686.328735,501.886993 1703.266724,489.853912 1720.193115,477.806671 
	C1722.448730,476.201263 1724.322876,474.059937 1726.703979,472.071411 
	C1727.349609,474.937988 1727.933716,477.899475 1727.939331,480.862061 
	C1728.006104,515.607849 1727.986084,550.353882 1727.520020,585.536133 
	C1700.473755,586.074890 1673.896484,586.177429 1647.319092,586.280029 
	C1637.866211,586.510132 1628.413086,586.920227 1618.960571,586.909668 
	C1612.165771,586.902039 1605.371582,586.332886 1597.791870,585.831421 
	C1595.205688,585.484802 1593.407471,585.226196 1591.603271,585.173340 
	C1582.690552,584.912170 1573.776123,584.705505 1564.862305,584.479675 
z"/>
<path fill="#FF7373" opacity="1.000000" stroke="none" 
	d="
M1727.098145,390.654022 
	C1725.214233,390.658417 1723.432007,390.086670 1721.649292,390.085266 
	C1683.747070,390.055603 1645.844971,390.090057 1607.475830,390.148560 
	C1604.177734,390.137482 1601.346680,390.048279 1598.515625,390.048126 
	C1413.070190,390.038208 1227.624756,390.035461 1041.389648,389.928650 
	C1040.367432,389.816956 1040.134766,389.808716 1039.902222,389.800415 
	C1041.841431,389.214722 1043.777222,388.134216 1045.720581,388.120331 
	C1063.877441,387.990204 1082.035645,388.042816 1100.193481,388.042816 
	C1307.093018,388.042786 1513.992676,388.034454 1720.892090,388.163544 
	C1722.920166,388.164825 1726.460815,385.837921 1727.098145,390.654022 
z"/>
<path fill="#FF7373" opacity="1.000000" stroke="none" 
	d="
M1482.229248,968.725708 
	C1481.861572,924.057068 1481.832886,879.113220 1481.792603,834.169434 
	C1481.790405,831.674011 1481.691040,829.178711 1481.597412,826.262939 
	C1481.644897,813.352844 1481.802612,800.863098 1481.804810,788.373413 
	C1481.810913,754.227539 1481.751587,720.081604 1481.678589,685.467041 
	C1481.735229,666.520020 1481.831543,648.041687 1481.967407,629.052856 
	C1482.428955,630.775330 1483.218140,633.007874 1483.220093,635.241150 
	C1483.315308,744.698486 1483.346558,854.155823 1483.344238,963.613220 
	C1483.344238,965.225708 1482.836670,966.838135 1482.229248,968.725708 
z"/>
<path fill="#FFD6D6" opacity="1.000000" stroke="none" 
	d="
M1039.834717,390.278687 
	C1040.134766,389.808716 1040.367432,389.816956 1040.938599,389.909546 
	C1041.239136,431.072876 1041.193604,472.151886 1041.165649,513.230896 
	C1041.148682,538.178528 1041.158813,563.126221 1041.063843,588.584351 
	C1040.971069,589.094849 1041.053101,589.275879 1041.053101,589.275879 
	C1040.610596,587.799988 1039.782349,586.324341 1039.781250,584.848083 
	C1039.730835,520.151062 1039.753418,455.454010 1039.834717,390.278687 
z"/>
<path fill="#FF7373" opacity="1.000000" stroke="none" 
	d="
M1647.490967,586.567749 
	C1673.896484,586.177429 1700.473755,586.074890 1727.517334,586.007446 
	C1726.673828,586.744202 1725.364624,588.056396 1724.054565,588.057251 
	C1699.663452,588.074097 1675.271973,587.947144 1650.881104,587.787903 
	C1649.806396,587.780823 1648.735474,587.179871 1647.490967,586.567749 
z"/>
<path fill="#FF7373" opacity="1.000000" stroke="none" 
	d="
M1564.465942,584.513672 
	C1573.776123,584.705505 1582.690552,584.912170 1591.603271,585.173340 
	C1593.407471,585.226196 1595.205688,585.484802 1597.340332,585.812134 
	C1579.209229,586.277344 1560.744019,586.814453 1542.279541,586.794250 
	C1530.824097,586.781677 1519.369507,585.923645 1507.577759,585.263000 
	C1526.183838,584.903137 1545.126709,584.725403 1564.465942,584.513672 
z"/>
<path fill="#FF7373" opacity="1.000000" stroke="none" 
	d="
M1244.000000,584.881104 
	C1250.962158,584.884216 1257.424316,584.884216 1263.886597,584.884216 
	C1244.776611,588.893677 1225.649414,585.123657 1206.530151,584.877991 
	C1218.853516,584.877991 1231.176758,584.877991 1244.000000,584.881104 
z"/>
<path fill="#FF7373" opacity="1.000000" stroke="none" 
	d="
M1068.125610,588.653076 
	C1086.817993,588.059998 1105.750244,587.471008 1124.682617,586.881958 
	C1124.695557,587.473694 1124.708618,588.065369 1124.721558,588.657104 
	C1105.936279,588.657104 1087.150879,588.657104 1068.125610,588.653076 
z"/>
<path fill="#FF7373" opacity="1.000000" stroke="none" 
	d="
M1164.009521,586.147705 
	C1173.832153,586.143005 1183.156494,586.143005 1192.480835,586.143005 
	C1192.475586,586.595825 1192.470459,587.048645 1192.465210,587.501465 
	C1178.543457,587.501465 1164.621704,587.501465 1150.699829,587.501465 
	C1150.684448,587.051819 1150.669189,586.602112 1150.653809,586.152466 
	C1154.939575,586.152466 1159.225464,586.152466 1164.009521,586.147705 
z"/>
<path fill="#FF7373" opacity="1.000000" stroke="none" 
	d="
M1041.061523,589.053833 
	C1045.083252,589.012756 1049.014404,589.012756 1052.945557,589.012756 
	C1052.944214,589.284424 1052.942871,589.556152 1052.941528,589.827820 
	C1049.069824,589.827820 1045.197998,589.827820 1041.189697,589.551880 
	C1041.053101,589.275879 1040.971069,589.094849 1041.061523,589.053833 
z"/>
<path fill="#387FC7" opacity="1.000000" stroke="none" 
	d="
M762.030701,1656.561646 
	C761.038147,1656.649414 760.045532,1656.814331 759.053040,1656.813843 
	C704.025879,1656.787964 648.998657,1656.748291 593.511108,1656.642822 
	C593.932800,1655.747437 594.888733,1654.136108 595.685486,1654.211304 
	C604.656189,1655.057983 609.680115,1648.774902 614.962585,1643.422852 
	C629.192261,1629.005859 642.999390,1614.171509 657.240784,1599.766235 
	C679.288208,1577.465576 701.629272,1555.455444 723.698364,1533.176147 
	C733.526978,1523.254028 743.023926,1513.001709 752.584778,1502.818115 
	C753.494202,1501.849487 754.526611,1499.996582 754.161865,1499.098267 
	C753.756226,1498.098999 751.865723,1497.580566 750.530701,1497.111450 
	C748.871887,1496.528564 747.119873,1496.210938 745.222778,1495.474121 
	C783.269836,1495.114258 821.502197,1495.044434 859.734619,1495.010376 
	C877.853699,1494.994263 895.972839,1495.046509 914.757690,1495.427979 
	C917.805237,1496.194336 920.231628,1496.433472 922.556213,1497.054321 
	C924.837280,1497.663696 927.014709,1498.661133 929.237610,1499.488037 
	C928.105591,1501.211426 927.230835,1503.191895 925.803162,1504.619507 
	C905.206482,1525.212769 884.446899,1545.643799 863.916138,1566.302246 
	C852.204102,1578.087036 840.944641,1590.320679 829.286011,1602.159790 
	C814.682495,1616.989380 799.712524,1631.461182 785.250061,1646.425171 
	C780.113831,1651.739624 774.618225,1654.592896 767.192139,1654.142822 
	C765.526611,1654.041870 763.753967,1655.708618 762.030701,1656.561646 
z"/>
<path fill="#336FAA" opacity="1.000000" stroke="none" 
	d="
M1481.428223,1288.079590 
	C1481.827759,1310.694580 1481.873047,1333.384033 1481.502197,1356.606934 
	C1480.059448,1359.927490 1478.192993,1362.713623 1478.189209,1365.502197 
	C1478.182251,1370.600098 1476.350830,1374.246948 1472.821899,1377.792603 
	C1451.807373,1398.907471 1430.980225,1420.208740 1410.067017,1441.424438 
	C1385.179688,1466.672119 1360.296387,1491.923950 1335.356934,1517.119995 
	C1322.706421,1529.901001 1309.889282,1542.517090 1297.229614,1555.289062 
	C1265.825073,1586.971436 1234.451538,1618.684814 1203.134644,1650.453613 
	C1201.439819,1652.172852 1200.377441,1654.515259 1199.020630,1656.567627 
	C1174.991699,1656.612061 1150.962646,1656.656616 1126.469482,1656.632568 
	C1126.622803,1655.292603 1126.919922,1653.636475 1127.909790,1652.811890 
	C1134.353027,1647.443359 1141.527222,1642.831665 1147.398560,1636.916626 
	C1191.383667,1592.603394 1235.093140,1548.016968 1278.945435,1503.571899 
	C1310.643188,1471.445557 1342.445923,1439.422852 1374.167847,1407.320190 
	C1396.868896,1384.346680 1419.491089,1361.295410 1442.193604,1338.323486 
	C1452.592896,1327.800415 1463.497559,1317.738770 1473.332886,1306.718018 
	C1476.567017,1303.094116 1477.118530,1297.096436 1478.984009,1292.217651 
	C1479.524780,1290.803467 1480.368774,1289.505371 1481.428223,1288.079590 
z"/>
<path fill="#3576B7" opacity="1.000000" stroke="none" 
	d="
M1028.070801,1656.242432 
	C1023.390442,1656.658325 1018.743408,1656.824219 1014.096436,1656.820923 
	C975.053406,1656.793701 936.010315,1656.735596 896.577515,1656.297241 
	C896.744568,1655.348022 897.263000,1654.349243 897.864136,1654.296631 
	C903.655334,1653.790527 907.514648,1650.139282 911.218079,1646.263916 
	C922.925293,1634.013916 934.440186,1621.576294 946.306763,1609.483398 
	C971.874146,1583.428345 997.617432,1557.546021 1023.282288,1531.586548 
	C1032.403198,1522.361084 1041.527954,1513.139404 1050.590820,1503.857178 
	C1051.864014,1502.552979 1052.792236,1500.911987 1053.862183,1499.451172 
	C1050.804199,1497.777588 1048.412598,1496.468872 1046.021118,1495.160034 
	C1086.041870,1495.122314 1126.062622,1495.084595 1166.551025,1495.100342 
	C1169.916260,1496.083374 1172.790527,1497.096924 1175.721069,1497.907715 
	C1177.226440,1498.324219 1178.831909,1498.378174 1181.598511,1498.764648 
	C1179.614624,1501.247070 1178.482910,1502.971313 1177.056641,1504.401978 
	C1155.078979,1526.443115 1132.934204,1548.318970 1111.091187,1570.492554 
	C1087.724609,1594.212402 1064.656494,1618.226196 1041.397339,1642.052246 
	C1038.038452,1645.493164 1034.274292,1648.535278 1030.835083,1651.902588 
	C1029.701782,1653.012085 1029.002075,1654.564209 1028.070801,1656.242432 
z"/>
<path fill="#367BC0" opacity="1.000000" stroke="none" 
	d="
M1377.977051,1047.372803 
	C1382.021729,1047.310425 1386.066528,1047.248047 1390.769287,1047.555176 
	C1393.944458,1047.740112 1396.461304,1047.555420 1398.978271,1047.370605 
	C1403.021606,1047.306885 1407.065063,1047.243042 1411.688477,1047.500488 
	C1413.172241,1047.668457 1414.076172,1047.515015 1414.979980,1047.361572 
	C1435.350464,1047.297241 1455.720825,1047.232910 1476.553467,1047.259033 
	C1475.655518,1050.420654 1475.028931,1054.212158 1472.825928,1056.455444 
	C1437.623779,1092.299683 1402.140015,1127.867188 1366.896606,1163.671143 
	C1349.394897,1181.451172 1332.333130,1199.663696 1314.908081,1217.520142 
	C1306.671265,1225.960815 1298.061523,1234.038330 1289.578979,1242.237183 
	C1288.670044,1243.115845 1287.482056,1243.705688 1286.227173,1244.563721 
	C1283.674316,1241.197998 1286.673340,1235.302979 1280.509155,1234.088135 
	C1279.408936,1233.149658 1278.728638,1232.176880 1277.910522,1231.338379 
	C1276.608154,1230.003662 1275.343140,1228.570190 1273.822632,1227.527954 
	C1272.283325,1226.472778 1270.458618,1225.145142 1268.749146,1225.131226 
	C1247.961670,1224.960693 1227.172363,1225.017212 1206.383545,1225.001465 
	C1194.575684,1224.992554 1182.767944,1224.958984 1170.620117,1224.603760 
	C1171.599976,1223.309204 1172.913330,1222.338501 1174.240723,1221.387451 
	C1178.771362,1218.141235 1183.882080,1215.471680 1187.748779,1211.568970 
	C1217.259399,1181.782715 1246.458130,1151.687988 1275.895020,1121.828369 
	C1296.805786,1100.617188 1317.869507,1079.555420 1339.036987,1058.600586 
	C1342.389038,1055.282227 1344.528198,1052.114014 1343.016724,1047.351318 
	C1353.045898,1047.296509 1363.075195,1047.241699 1373.714111,1047.524414 
	C1375.541626,1047.698853 1376.759399,1047.535767 1377.977051,1047.372803 
z"/>
<path fill="#367ABE" opacity="1.000000" stroke="none" 
	d="
M1045.552979,1495.109253 
	C1048.412598,1496.468872 1050.804199,1497.777588 1053.862183,1499.451172 
	C1052.792236,1500.911987 1051.864014,1502.552979 1050.590820,1503.857178 
	C1041.527954,1513.139404 1032.403198,1522.361084 1023.282288,1531.586548 
	C997.617432,1557.546021 971.874146,1583.428345 946.306763,1609.483398 
	C934.440186,1621.576294 922.925293,1634.013916 911.218079,1646.263916 
	C907.514648,1650.139282 903.655334,1653.790527 897.864136,1654.296631 
	C897.263000,1654.349243 896.744568,1655.348022 896.116150,1656.234741 
	C893.723267,1656.653198 891.402039,1656.825562 889.080872,1656.823975 
	C847.038818,1656.795044 804.996704,1656.745239 762.492676,1656.630737 
	C763.753967,1655.708618 765.526611,1654.041870 767.192139,1654.142822 
	C774.618225,1654.592896 780.113831,1651.739624 785.250061,1646.425171 
	C799.712524,1631.461182 814.682495,1616.989380 829.286011,1602.159790 
	C840.944641,1590.320679 852.204102,1578.087036 863.916138,1566.302246 
	C884.446899,1545.643799 905.206482,1525.212769 925.803162,1504.619507 
	C927.230835,1503.191895 928.105591,1501.211426 929.237610,1499.488037 
	C927.014709,1498.661133 924.837280,1497.663696 922.556213,1497.054321 
	C920.231628,1496.433472 917.805237,1496.194336 915.226074,1495.474731 
	C958.380676,1495.127075 1001.732727,1495.092773 1045.552979,1495.109253 
z"/>
<path fill="#326AA1" opacity="1.000000" stroke="none" 
	d="
M1482.074219,1655.540405 
	C1482.102295,1656.010254 1481.899658,1656.377197 1481.844238,1656.579346 
	C1409.843262,1656.752197 1337.897705,1656.723145 1265.525391,1656.300781 
	C1268.013428,1652.823853 1270.873047,1649.686157 1273.851196,1646.665039 
	C1302.471924,1617.630005 1331.127441,1588.629150 1359.741089,1559.587158 
	C1373.529663,1545.592407 1387.138672,1531.419067 1401.031860,1517.529663 
	C1415.396240,1503.168945 1430.152466,1489.198853 1444.458374,1474.781250 
	C1453.943481,1465.222168 1462.741821,1454.980957 1472.240356,1445.435913 
	C1476.526245,1441.129150 1478.807983,1436.484863 1479.128418,1430.501221 
	C1479.210938,1428.960693 1480.858643,1427.503906 1481.787109,1426.008667 
	C1481.847900,1428.334595 1481.960693,1430.660522 1481.961792,1432.986450 
	C1481.996582,1507.014526 1482.020630,1581.042480 1482.074219,1655.540405 
z"/>
<path fill="#336DA6" opacity="1.000000" stroke="none" 
	d="
M1481.853882,1425.543579 
	C1480.858643,1427.503906 1479.210938,1428.960693 1479.128418,1430.501221 
	C1478.807983,1436.484863 1476.526245,1441.129150 1472.240356,1445.435913 
	C1462.741821,1454.980957 1453.943481,1465.222168 1444.458374,1474.781250 
	C1430.152466,1489.198853 1415.396240,1503.168945 1401.031860,1517.529663 
	C1387.138672,1531.419067 1373.529663,1545.592407 1359.741089,1559.587158 
	C1331.127441,1588.629150 1302.471924,1617.630005 1273.851196,1646.665039 
	C1270.873047,1649.686157 1268.013428,1652.823853 1265.063354,1656.235229 
	C1243.333862,1656.610596 1221.639893,1656.658203 1199.483276,1656.636719 
	C1200.377441,1654.515259 1201.439819,1652.172852 1203.134644,1650.453613 
	C1234.451538,1618.684814 1265.825073,1586.971436 1297.229614,1555.289062 
	C1309.889282,1542.517090 1322.706421,1529.901001 1335.356934,1517.119995 
	C1360.296387,1491.923950 1385.179688,1466.672119 1410.067017,1441.424438 
	C1430.980225,1420.208740 1451.807373,1398.907471 1472.821899,1377.792603 
	C1476.350830,1374.246948 1478.182251,1370.600098 1478.189209,1365.502197 
	C1478.192993,1362.713623 1480.059448,1359.927490 1481.437134,1357.071777 
	C1481.832397,1379.695068 1481.876465,1402.386719 1481.853882,1425.543579 
z"/>
<path fill="#3880C8" opacity="1.000000" stroke="none" 
	d="
M1342.554688,1047.260620 
	C1344.528198,1052.114014 1342.389038,1055.282227 1339.036987,1058.600586 
	C1317.869507,1079.555420 1296.805786,1100.617188 1275.895020,1121.828369 
	C1246.458130,1151.687988 1217.259399,1181.782715 1187.748779,1211.568970 
	C1183.882080,1215.471680 1178.771362,1218.141235 1174.240723,1221.387451 
	C1172.913330,1222.338501 1171.599976,1223.309204 1170.154053,1224.574951 
	C1127.670288,1224.898438 1085.312744,1224.917847 1042.574707,1224.592285 
	C1044.760376,1221.700439 1047.348022,1219.174805 1049.889526,1216.603638 
	C1077.692749,1188.477783 1105.443115,1160.299438 1133.300293,1132.226929 
	C1157.544678,1107.795288 1181.995972,1083.567871 1206.107422,1059.006470 
	C1209.179810,1055.876831 1210.751343,1051.273682 1213.018188,1047.353149 
	C1221.319702,1047.272461 1229.621338,1047.125000 1237.922852,1047.123047 
	C1272.646118,1047.114868 1307.369507,1047.150391 1342.554688,1047.260620 
z"/>
<path fill="#3985D0" opacity="1.000000" stroke="none" 
	d="
M1212.555664,1047.263306 
	C1210.751343,1051.273682 1209.179810,1055.876831 1206.107422,1059.006470 
	C1181.995972,1083.567871 1157.544678,1107.795288 1133.300293,1132.226929 
	C1105.443115,1160.299438 1077.692749,1188.477783 1049.889526,1216.603638 
	C1047.348022,1219.174805 1044.760376,1221.700439 1042.108154,1224.566650 
	C1040.315674,1224.926147 1038.609375,1224.966064 1036.478516,1225.001709 
	C1036.051025,1166.039917 1036.047974,1107.082642 1036.027832,1047.672363 
	C1094.704956,1047.203979 1153.399170,1047.188721 1212.555664,1047.263306 
z"/>
<path fill="#3577B8" opacity="1.000000" stroke="none" 
	d="
M1398.543213,1047.284912 
	C1396.461304,1047.555420 1393.944458,1047.740112 1391.226318,1047.647949 
	C1393.386108,1047.313721 1395.747070,1047.256470 1398.543213,1047.284912 
z"/>
<path fill="#3577B8" opacity="1.000000" stroke="none" 
	d="
M1377.587402,1047.287354 
	C1376.759399,1047.535767 1375.541626,1047.698853 1374.176147,1047.617432 
	C1375.084839,1047.316040 1376.141235,1047.259033 1377.587402,1047.287354 
z"/>
<path fill="#3577B8" opacity="1.000000" stroke="none" 
	d="
M1414.614746,1047.279297 
	C1414.076172,1047.515015 1413.172241,1047.668457 1412.145508,1047.591919 
	C1412.764893,1047.307007 1413.507202,1047.251953 1414.614746,1047.279297 
z"/>
</svg>